<svg version="1.1" xmlns="http://www.w3.org/2000/svg" viewBox="0 0 556 142">
<style type="text/css">
	@keyframes dash{0%{stroke-dashoffset: calc(var(--len) + 1px);}100%{stroke-dashoffset: 0;}}@keyframes stroke-width{0%{stroke-width: 3px;}100%{stroke-width: 14px;}}@keyframes fade{0%{opacity: 0;}100%{opacity: 1;}}@keyframes dot{0%{r: 0px;}100%{r: var(--r);}}.stroke{fill: none;stroke: #fff;stroke-linecap: round;stroke-linejoin: round;stroke-width: 3px;stroke-dasharray: calc(var(--len) + 1px);stroke-dashoffset: calc(var(--len) + 1px);animation: dash 1s cubic-bezier(0.8, 0, 0.2, 1) var(--delay) forwards, stroke-width 1s cubic-bezier(0.8, 0, 0.2, 1) calc(var(--delay) + 0.5s) forwards, fade 0.2s linear calc(var(--delay) + 0s) forwards;}.dot{fill: #fff;r: 0;animation: dot 1s cubic-bezier(0.8, 0, 0.2, 1) var(--delay) forwards;}
</style>
<g id="text">
	<path class="stroke" style="--len: 187px; --delay: 0.5s;" d="M28.9,113.9c0,0,30.4-77.4,31.7-80.6c1.2-3.2,6.4-4,8.2,0c2.5,4.8,32.7,80.6,32.7,80.6"/>
	<line class="stroke" style="--len: 52px; --delay: 0.6s;" x1="40.2" y1="90" x2="90.8" y2="90"/>
	<path class="stroke" style="--len: 82px; --delay: 0.8s;" d="M137.1,113.9V74.1c0,0,0-15,15-15l19,0"/>
	<line class="stroke" style="--len: 57px; --delay: 1s;" x1="208.9" y1="113.9" x2="208.9" y2="59.1"/>
	<circle class="dot" style="--r: 8.5px; --delay: 1.5s;" cx="208.9" cy="30.9" r="7.4"/>
	<path class="stroke" style="--len: 175px; --delay: 1.2s;" d="M297.1,59.1h-33.6c-12.9,0-13.4,10.5-13.4,13.4c0,3.9,0,13.9,15.3,13.9h16.5c15.2,0,15.2,11.2,15.2,14.2c0,2.4,0,13.3-13.5,13.3h-33.5"/>
	<path class="stroke" style="--len: 105px; --delay: 1.4s;" d="M337.7,30.6c0,22.2,0,42,0,55.9c0,15.8,10.6,27.4,25.8,27.4l7.3,0"/>
	<line class="stroke" style="--len: 12px; --delay: 1.6s;" x1="358.2" y1="53.6" x2="370.9" y2="53.6"/>
	<path class="stroke" style="--len: 82px; --delay: 1.8s;" d="M407.5,113.9v-40c0,0,0-14.8,15-14.8h19"/>
	<path class="stroke" style="--len: 164px; --delay: 2s;" d="M500.5,113.9h-7.9c-10,0-16.8-7.6-16.8-16.2V74.8c0-9.8,6.7-15.7,15.8-15.7h11.7c9,0,15.4,5.8,15.6,14.7l0,28.6c-0.1,11.5,9.3,11.5,9.3,11.5"/>
</g>
</svg>